<svg width="21" height="20" viewBox="0 0 21 20" fill="none" xmlns="http://www.w3.org/2000/svg">
<mask id="mask0_1_610" style="mask-type:alpha" maskUnits="userSpaceOnUse" x="0" y="0" width="21" height="20">
<rect x="0.920898" width="20" height="20" fill="#D9D9D9"/>
</mask>
<g mask="url(#mask0_1_610)">
<path d="M8.83756 13.3333C7.32368 13.3333 6.04243 12.809 4.99382 11.7604C3.9452 10.7118 3.4209 9.43056 3.4209 7.91667C3.4209 6.40278 3.9452 5.12153 4.99382 4.07292C6.04243 3.02431 7.32368 2.5 8.83756 2.5C10.3515 2.5 11.6327 3.02431 12.6813 4.07292C13.7299 5.12153 14.2542 6.40278 14.2542 7.91667C14.2542 8.52778 14.157 9.10417 13.9626 9.64583C13.7681 10.1875 13.5042 10.6667 13.1709 11.0833L17.8376 15.75C17.9903 15.9028 18.0667 16.0972 18.0667 16.3333C18.0667 16.5694 17.9903 16.7639 17.8376 16.9167C17.6848 17.0694 17.4903 17.1458 17.2542 17.1458C17.0181 17.1458 16.8237 17.0694 16.6709 16.9167L12.0042 12.25C11.5876 12.5833 11.1084 12.8472 10.5667 13.0417C10.0251 13.2361 9.44868 13.3333 8.83756 13.3333ZM8.83756 11.6667C9.87923 11.6667 10.7646 11.3021 11.4938 10.5729C12.223 9.84375 12.5876 8.95833 12.5876 7.91667C12.5876 6.875 12.223 5.98958 11.4938 5.26042C10.7646 4.53125 9.87923 4.16667 8.83756 4.16667C7.7959 4.16667 6.91048 4.53125 6.18131 5.26042C5.45215 5.98958 5.08757 6.875 5.08757 7.91667C5.08757 8.95833 5.45215 9.84375 6.18131 10.5729C6.91048 11.3021 7.7959 11.6667 8.83756 11.6667Z" fill="#828282"/>
</g>
</svg>
