<svg width="14" height="18" viewBox="0 0 14 18" fill="none" xmlns="http://www.w3.org/2000/svg">
<path d="M12.3684 10.5055C12.3693 9.11046 11.8225 7.77143 10.8468 6.7793C10.8386 6.76847 10.8298 6.75816 10.8203 6.74844C10.8105 6.73895 10.8001 6.73007 10.7892 6.72187C9.80239 5.74117 8.47037 5.19146 7.08257 5.19219C5.69463 5.19136 4.36244 5.74107 3.37551 6.72187C3.35372 6.73817 3.33435 6.75751 3.31799 6.7793C2.34237 7.77149 1.79571 9.11051 1.79676 10.5055C1.79588 11.9004 2.34268 13.2392 3.31837 14.2312C3.32654 14.2421 3.33536 14.2524 3.3448 14.2621C3.35461 14.2717 3.36499 14.2807 3.3759 14.2891C4.36287 15.2695 5.69484 15.8191 7.08257 15.8184C8.47042 15.8192 9.80255 15.2696 10.7896 14.2891C10.8113 14.2725 10.8307 14.253 10.8471 14.2312C11.8227 13.2392 12.3694 11.9003 12.3684 10.5055ZM11.2315 10.818H11.7368C11.6696 11.8439 11.2672 12.8188 10.5922 13.5914L10.2369 13.2348C10.1782 13.1786 10.0999 13.1478 10.0188 13.1488C9.93773 13.1499 9.86026 13.1827 9.80293 13.2404C9.74559 13.298 9.71292 13.3758 9.71188 13.4573C9.71085 13.5388 9.74152 13.6175 9.79737 13.6766L10.1522 14.0332C9.38367 14.7119 8.41359 15.1165 7.39272 15.184V14.6762C7.39272 14.5933 7.35996 14.5138 7.30165 14.4552C7.24334 14.3966 7.16425 14.3637 7.08179 14.3637C6.99933 14.3637 6.92024 14.3966 6.86193 14.4552C6.80362 14.5138 6.77086 14.5933 6.77086 14.6762V15.184C5.75007 15.1161 4.78009 14.7116 4.01136 14.0332L4.36621 13.6766C4.3951 13.6476 4.41802 13.6131 4.43366 13.5752C4.4493 13.5373 4.45737 13.4966 4.45738 13.4556C4.4574 13.4146 4.44938 13.3739 4.43377 13.336C4.41816 13.2981 4.39526 13.2636 4.3664 13.2346C4.33754 13.2055 4.30327 13.1825 4.26555 13.1668C4.22783 13.1511 4.18739 13.143 4.14656 13.1429C4.10572 13.1429 4.06528 13.151 4.02754 13.1667C3.98981 13.1824 3.95552 13.2054 3.92663 13.2344L3.57139 13.5914C2.89637 12.8188 2.49401 11.8439 2.42678 10.818H2.93204C3.01451 10.818 3.09359 10.785 3.1519 10.7264C3.21022 10.6678 3.24297 10.5883 3.24297 10.5055C3.24297 10.4226 3.21022 10.3431 3.1519 10.2845C3.09359 10.2259 3.01451 10.193 2.93204 10.193H2.42678C2.49409 9.16705 2.89644 8.19214 3.57139 7.41953L3.92663 7.77656C3.98542 7.83269 4.06369 7.86352 4.14477 7.86248C4.22585 7.86144 4.30331 7.8286 4.36065 7.77098C4.41799 7.71335 4.45066 7.6355 4.45169 7.55401C4.45273 7.47252 4.42206 7.39385 4.36621 7.33477L4.01214 6.97852C4.78081 6.30008 5.75085 5.89569 6.77164 5.82812V6.33594C6.77164 6.41882 6.8044 6.4983 6.86271 6.55691C6.92102 6.61551 7.0001 6.64844 7.08257 6.64844C7.16503 6.64844 7.24412 6.61551 7.30243 6.55691C7.36074 6.4983 7.3935 6.41882 7.3935 6.33594V5.82812C8.41428 5.89569 9.38432 6.30008 10.153 6.97852L9.79815 7.33555C9.7423 7.39463 9.71162 7.4733 9.71266 7.55479C9.7137 7.63628 9.74637 7.71413 9.80371 7.77176C9.86104 7.82938 9.93851 7.86222 10.0196 7.86326C10.1007 7.86431 10.1789 7.83348 10.2377 7.77734L10.593 7.42031C11.2679 8.19292 11.6703 9.16783 11.7376 10.1938H11.2323C11.1498 10.1938 11.0708 10.2267 11.0125 10.2853C10.9541 10.3439 10.9214 10.4234 10.9214 10.5063C10.9214 10.5891 10.9541 10.6686 11.0125 10.7272C11.0708 10.7858 11.1498 10.8188 11.2323 10.8188L11.2315 10.818ZM12.2623 6.51445L13.2596 5.5125C13.2885 5.48348 13.3114 5.44901 13.3271 5.41108C13.3427 5.37314 13.3508 5.33247 13.3508 5.29141C13.3508 5.25034 13.3427 5.20967 13.3271 5.17174C13.3114 5.1338 13.2885 5.09934 13.2596 5.07031L12.49 4.29688C12.4611 4.26782 12.4269 4.24477 12.3891 4.22904C12.3514 4.21332 12.3109 4.20522 12.27 4.20522C12.2292 4.20522 12.1887 4.21332 12.151 4.22904C12.1132 4.24477 12.0789 4.26782 12.0501 4.29688L11.0531 5.29883C10.1465 4.59776 9.07179 4.14972 7.93762 4V2.89727H8.74099C8.82345 2.89727 8.90254 2.86434 8.96085 2.80574C9.01916 2.74713 9.05192 2.66765 9.05192 2.58477V1.24414C9.05192 1.16126 9.01916 1.08177 8.96085 1.02317C8.90254 0.964565 8.82345 0.931641 8.74099 0.931641H5.42415C5.34168 0.931641 5.2626 0.964565 5.20428 1.02317C5.14597 1.08177 5.11322 1.16126 5.11322 1.24414V2.58477C5.11322 2.66765 5.14597 2.74713 5.20428 2.80574C5.2626 2.86434 5.34168 2.89727 5.42415 2.89727H6.22751V4C5.09307 4.14992 4.01817 4.59838 3.11161 5.3L2.11469 4.29688C2.08581 4.26782 2.05152 4.24477 2.01377 4.22904C1.97603 4.21332 1.93557 4.20522 1.8947 4.20522C1.85384 4.20522 1.81338 4.21332 1.77564 4.22904C1.73789 4.24477 1.7036 4.26782 1.67472 4.29688L0.905171 5.07031C0.876262 5.09934 0.853328 5.1338 0.837681 5.17174C0.822034 5.20967 0.81398 5.25034 0.81398 5.29141C0.81398 5.33247 0.822034 5.37314 0.837681 5.41108C0.853328 5.44901 0.876262 5.48348 0.905171 5.5125L1.90248 6.51445C1.026 7.65825 0.551446 9.06177 0.553044 10.5055C0.553044 14.1242 3.48239 17.068 7.08257 17.068C10.6827 17.068 13.6121 14.1238 13.6121 10.5055C13.6137 9.06177 13.1391 7.65825 12.2627 6.51445H12.2623ZM12.27 4.95977L12.6 5.29141L11.8592 6.03555C11.7535 5.92148 11.6436 5.81107 11.5296 5.7043L12.27 4.95977ZM5.73507 1.55664H8.43006V2.27227H5.73507V1.55664ZM6.84937 2.89727H7.31576V3.94688C7.23803 3.94414 7.1603 3.94219 7.08257 3.94219C7.00483 3.94219 6.9271 3.94219 6.84937 3.94688V2.89727ZM1.56356 5.29141L1.89354 4.95977L2.63433 5.7043C2.52032 5.81107 2.41033 5.92148 2.30435 6.03555L1.56356 5.29141ZM7.08257 16.4434C3.8248 16.4434 1.1749 13.7797 1.1749 10.5059C1.1749 7.23203 3.82519 4.56836 7.08257 4.56836C10.3399 4.56836 12.9902 7.23242 12.9902 10.5059C12.9902 13.7793 10.3403 16.4434 7.08257 16.4434ZM8.47514 11.4609C8.53343 11.5196 8.56616 11.5991 8.56612 11.682C8.56609 11.7649 8.53329 11.8443 8.47495 11.9029C8.44606 11.9319 8.41177 11.9549 8.37403 11.9706C8.3363 11.9863 8.29586 11.9944 8.25502 11.9944C8.17255 11.9943 8.09347 11.9614 8.03518 11.9027L6.86258 10.7266C6.85559 10.7195 6.84859 10.7117 6.84198 10.7039L6.83343 10.6922L6.82411 10.6793C6.821 10.6746 6.81828 10.6699 6.81556 10.6652C6.813 10.6613 6.81066 10.6573 6.80856 10.6531C6.80584 10.6484 6.8035 10.6434 6.80156 10.6383C6.79923 10.634 6.79729 10.6297 6.79535 10.6254C6.7934 10.6211 6.79185 10.6156 6.7899 10.6109C6.78796 10.6062 6.78641 10.6016 6.78524 10.5965C6.78407 10.5914 6.78252 10.5867 6.78135 10.582C6.78019 10.5773 6.77863 10.5719 6.77786 10.5668C6.77708 10.5617 6.77786 10.5551 6.77513 10.5492C6.77241 10.5434 6.77513 10.541 6.77319 10.5367C6.77261 10.5264 6.77261 10.5161 6.77319 10.5059V7.46953C6.77319 7.38665 6.80595 7.30717 6.86426 7.24856C6.92257 7.18996 7.00166 7.15703 7.08412 7.15703C7.16658 7.15703 7.24567 7.18996 7.30398 7.24856C7.36229 7.30717 7.39505 7.38665 7.39505 7.46953V10.3758L8.47514 11.4609Z" fill="#4F4F4F"/>
</svg>
